<svg xmlns="http://www.w3.org/2000/svg" xmlns:xlink="http://www.w3.org/1999/xlink" viewBox="0 0 458.71 337.36"><defs><style>.cls-1{fill:none;}.cls-2{fill:#2cbf7b;}.cls-3{fill:#033a3f;}.cls-4{fill:#027369;}.cls-5{fill:#e3fbff;}.cls-6{clip-path:url(#clip-path);}.cls-7{fill:#d1eff2;}.cls-8{fill:#72a2ba;}.cls-9{fill:#a5c8e4;}.cls-10{fill:#fff;}.cls-11{fill:#293f60;}.cls-12{fill:#fd5b68;}.cls-13{fill:#f4b3b3;}.cls-14{fill:#ffa185;}.cls-15{fill:#00174b;}.cls-16{fill:#ed806b;}.cls-17{fill:#063e8e;}.cls-18{fill:#15eadf;}.cls-19{fill:#97d0f0;}.cls-20,.cls-22{fill:#eaa49d;}.cls-21{fill:#cee9f9;}.cls-22{fill-rule:evenodd;}.cls-23{fill:#c42c2c;}.cls-24{fill:#b2dcf7;}</style><clipPath id="clip-path"><path class="cls-1" d="M368.12,141.57c-39.43-27.23-119.8-44.2-162.79-82.81S83.67,72.17,74.27,153.07s21.83,155,80.41,179.29H359.53C419.69,273.28,407.55,168.8,368.12,141.57Z"/></clipPath></defs><g id="Calque_2" data-name="Calque 2"><g id="OBJECTS"><path class="cls-2" d="M386.19,271.73a27.15,27.15,0,0,1,3.93,1c17.7,5.63,30.55,20.49,35.32,38.2-16.34,6-36.91,1.32-49.82-10-2.76-2.41-5.34-5.33-6.05-8.92-.83-4.18,1-8.38,3.05-12.14,1.52-2.85,3.31-5.79,6.18-7.28A11.81,11.81,0,0,1,386.19,271.73Z"/><path class="cls-3" d="M355.26,272.76l0,0A243,243,0,0,1,425,310.88a.11.11,0,0,0,.16,0,.12.12,0,0,0,0-.15,243.27,243.27,0,0,0-69.78-38.14.11.11,0,0,0-.14.07A.1.1,0,0,0,355.26,272.76Z"/><path class="cls-3" d="M416,313.06a.09.09,0,0,0,.12,0,.11.11,0,0,0,0-.15l-1.36-2a101.59,101.59,0,0,1-7.15-12.56.1.1,0,0,0-.14-.05.11.11,0,0,0-.06.14A100.13,100.13,0,0,0,414.64,311l1.35,2Z"/><path class="cls-3" d="M404.56,313.3a.12.12,0,0,0,.14,0,.12.12,0,0,0,0-.16,25.33,25.33,0,0,1-3.2-5.09l-.6-1.14c-2.86-5.27-6-11.46-7.62-17.38a.12.12,0,0,0-.13-.08.11.11,0,0,0-.08.14c1.63,5.94,4.77,12.14,7.63,17.43.2.36.4.74.61,1.14a25.83,25.83,0,0,0,3.22,5.13Z"/><path class="cls-3" d="M390.81,310.13a.11.11,0,0,0,.13,0,.1.1,0,0,0,0-.15c-4.19-6-7.4-12.66-10.5-19.12-1.29-2.7-2.75-5.75-2.59-9a.13.13,0,0,0-.11-.12.11.11,0,0,0-.11.11c-.17,3.26,1.31,6.34,2.62,9.06,3.1,6.48,6.31,13.17,10.51,19.15Z"/><path class="cls-3" d="M407.51,298.44a.06.06,0,0,0,.07,0,32.66,32.66,0,0,1,13.91,2.1.11.11,0,0,0,.14-.06.11.11,0,0,0-.07-.14,32.57,32.57,0,0,0-14-2.11.1.1,0,0,0-.1.11A.11.11,0,0,0,407.51,298.44Z"/><path class="cls-3" d="M393.11,289.68a.11.11,0,0,0,.14,0,65.65,65.65,0,0,1,8.44-2.15,72.65,72.65,0,0,1,9.59-1.65.1.1,0,0,0,.11-.1.11.11,0,0,0-.1-.12c-2.3-.13-17.43,3.25-18.18,3.85a.12.12,0,0,0,0,.16Z"/><path class="cls-3" d="M376.79,281.8a.12.12,0,0,0,.1,0,125.23,125.23,0,0,0,12.49-4.54l.09,0c2.34-1,4.77-2,7.3-1.92a.11.11,0,0,0,0-.22c-2.57-.05-5,1-7.39,1.94l-.09,0a124.62,124.62,0,0,1-12.46,4.53.09.09,0,0,0-.07.13S376.78,281.78,376.79,281.8Z"/><path class="cls-3" d="M355.26,272.76l0,0A247,247,0,0,1,391.9,289a243,243,0,0,1,33.47,22h0a.1.1,0,0,0,.15,0,.1.1,0,0,0,0-.15,241.3,241.3,0,0,0-33.5-22,247,247,0,0,0-36.64-16.26.11.11,0,0,0-.14.07A.1.1,0,0,0,355.26,272.76Z"/><path class="cls-2" d="M369.94,246.78a10,10,0,0,0,2.19,2,15.84,15.84,0,0,0,11.75,2c6.58-1.24,12.19-5.45,17.08-10,17.53-16.36,28.57-38.67,32.32-62.25-9.1,12-24.41,16.71-37.52,22.85-11.08,5.19-22.21,12.49-26.66,23.88C366.75,231.29,365.44,241.24,369.94,246.78Z"/><path class="cls-3" d="M348.6,261.09a.11.11,0,0,0,.11,0c13.64-6.46,25.61-16,37.18-25.22,3.34-2.66,6.78-5.41,10-8.28a156.07,156.07,0,0,0,20.44-22.17,273.26,273.26,0,0,0,16.91-25.11.11.11,0,0,0,0-.15.1.1,0,0,0-.15,0,270.54,270.54,0,0,1-16.9,25.08,155.2,155.2,0,0,1-20.41,22.15c-3.25,2.86-6.69,5.61-10,8.26-11.57,9.22-23.53,18.75-37.15,25.2a.12.12,0,0,0-.05.15A.08.08,0,0,0,348.6,261.09Z"/><path class="cls-3" d="M375.17,245a.08.08,0,0,0,.07,0,145.17,145.17,0,0,0,25.51-4.5.1.1,0,0,0,.08-.13.12.12,0,0,0-.13-.08,145,145,0,0,1-25.48,4.49.11.11,0,0,0-.1.12A.09.09,0,0,0,375.17,245Z"/><path class="cls-3" d="M392.59,230.35a.09.09,0,0,0,.08,0c2-.33,17.69-3.57,21.82-4.87a.11.11,0,0,0,.07-.13.11.11,0,0,0-.14-.07c-4.12,1.29-19.82,4.52-21.78,4.86a.1.1,0,0,0-.09.12A.08.08,0,0,0,392.59,230.35Z"/><path class="cls-3" d="M411.22,211.58a.09.09,0,0,0,.09,0c4.8-1.51,11.24-4.32,14.93-7.69a.11.11,0,1,0-.14-.16c-3.67,3.35-10.08,6.14-14.85,7.64a.12.12,0,0,0-.08.14Z"/><path class="cls-3" d="M411.15,211.59h.05a.1.1,0,0,0,.12-.09l.85-7.87a47.87,47.87,0,0,1,2.39-10.74.11.11,0,0,0-.21-.07,48.19,48.19,0,0,0-2.4,10.79l-.85,7.86A.14.14,0,0,0,411.15,211.59Z"/><path class="cls-3" d="M392.59,230.35a.1.1,0,0,0,.09,0,.1.1,0,0,0,.08-.13c-1.35-5.42-.1-10.67,1.22-16.24.18-.76.37-1.56.55-2.34.39-1.69.91-3.61,1.42-5.46s1-3.78,1.42-5.47a.11.11,0,0,0-.22,0c-.38,1.69-.91,3.61-1.41,5.46s-1,3.78-1.42,5.47c-.18.78-.37,1.58-.55,2.34-1.27,5.35-2.59,10.87-1.22,16.34A.09.09,0,0,0,392.59,230.35Z"/><path class="cls-3" d="M375.82,244.55l.06,0a.13.13,0,0,0,.11-.12,132.6,132.6,0,0,1,2.17-31.32.11.11,0,0,0-.09-.13.12.12,0,0,0-.13.09,133.06,133.06,0,0,0-2.17,31.37A.11.11,0,0,0,375.82,244.55Z"/><path class="cls-3" d="M348.6,261.09a.11.11,0,0,0,.11,0c13.64-6.46,25.61-16,37.18-25.22,3.34-2.66,6.78-5.41,10-8.28a156.07,156.07,0,0,0,20.44-22.17,273.26,273.26,0,0,0,16.91-25.11.11.11,0,0,0,0-.15.1.1,0,0,0-.15,0,270.54,270.54,0,0,1-16.9,25.08,155.2,155.2,0,0,1-20.41,22.15c-3.25,2.86-6.69,5.61-10,8.26-11.57,9.22-23.53,18.75-37.15,25.2a.12.12,0,0,0-.05.15A.08.08,0,0,0,348.6,261.09Z"/><path class="cls-4" d="M349.19,274.57c8.61-18.55,28.9-29.62,49.21-32s40.73,2.61,60.2,8.88a65.35,65.35,0,0,0-31.12,4.29c-13.47,5.4-24.77,15.13-37.85,21.44s-29.95,8.59-41.22-.56Z"/><path class="cls-3" d="M325,290.18l.25.1q2.19-1.47,4.71-3.09l1.8-1.15c.9-.58,1.84-1.17,2.8-1.76q1.94-1.21,4-2.46t4.24-2.5l.55-.32.33-.19h0l1-.59,1.93-1.1h0l2-1.09.12-.07c4.73-2.61,9.43-5,14.06-7.28l.75-.36,1.46-.7,2.2-1,2.34-1.06c6.09-2.73,12.06-5.1,17.86-7.1,1.84-.63,3.67-1.23,5.47-1.79l2.83-.85.1,0,.34-.1q5.28-1.52,10.36-2.7l.33-.08c5.79-1.34,11.38-2.35,16.7-3l.57-.07,2.93-.33h.08l.36,0a109.11,109.11,0,0,1,16.05-.47c8.51.42,13.31,1.95,14.64,2.42l.37.15a.12.12,0,0,0,.15-.06.1.1,0,0,0-.06-.14,24.88,24.88,0,0,0-4.2-1.22,66.06,66.06,0,0,0-10.87-1.37,109.14,109.14,0,0,0-16.15.48l-.38,0-2.94.33-.56.07a168.72,168.72,0,0,0-16.81,3.06l-.18,0-.17,0h0q-5.06,1.17-10.28,2.68l-.35.1-.35.1c-.93.27-1.87.56-2.82.85q-2.52.78-5.1,1.67c-1.39.48-2.8,1-4.22,1.51l-.27.1q-6.72,2.49-13.71,5.62l-2.34,1.07-2,.94-.77.36-.72.34c-4.84,2.32-9.75,4.86-14.69,7.58l-.25.14c-.7.38-1.39.77-2.08,1.16h0l-1.93,1.1-1.15.66h0L343,279h0l-.38.22c-1.39.81-2.77,1.62-4.15,2.46s-2.81,1.7-4.14,2.53l-2.81,1.76-1.8,1.15Q327.21,288.72,325,290.18Z"/><path class="cls-3" d="M359.05,271h0a230,230,0,0,0,29.61,6.18.11.11,0,0,0,.13-.09.13.13,0,0,0-.1-.13,229.5,229.5,0,0,1-29.58-6.18.12.12,0,0,0-.14.08A.12.12,0,0,0,359.05,271Z"/><path class="cls-3" d="M384.82,262.22a59.84,59.84,0,0,0,22.62,4.57.1.1,0,0,0,.1-.11.1.1,0,0,0-.11-.11,59.22,59.22,0,0,1-25.07-5.7.11.11,0,0,0-.15.05.11.11,0,0,0,.05.14C383.09,261.47,384,261.86,384.82,262.22Z"/><path class="cls-3" d="M411.88,255.49a45.43,45.43,0,0,0,9.73,3,.11.11,0,0,0,.13-.09.1.1,0,0,0-.09-.12,54.38,54.38,0,0,1-15.12-5.53.11.11,0,0,0-.15,0,.11.11,0,0,0,.05.15Q409.28,254.4,411.88,255.49Z"/><path class="cls-3" d="M433.75,253.6a.11.11,0,0,0,.12,0,.12.12,0,0,0,0-.16,35.79,35.79,0,0,0-6.71-4.13h0a.1.1,0,0,0-.14.06.11.11,0,0,0,.06.14h0a35.27,35.27,0,0,1,6.68,4.11Z"/><path class="cls-3" d="M427,249.47a.11.11,0,0,0,.11,0c.91-.81,2-1.73,3-2.62s2.13-1.82,3.05-2.63a.11.11,0,0,0,0-.15.1.1,0,0,0-.15,0c-.91.81-2,1.73-3,2.62s-2.13,1.81-3,2.63a.1.1,0,0,0,0,.15Z"/><path class="cls-3" d="M406.43,252.94a.12.12,0,0,0,.13,0,107,107,0,0,1,10.6-10.51.11.11,0,0,0,0-.15.11.11,0,0,0-.16,0,108.55,108.55,0,0,0-10.62,10.53.11.11,0,0,0,0,.16S406.42,252.93,406.43,252.94Z"/><path class="cls-3" d="M383.05,259.84a.11.11,0,0,0,.13,0,92.43,92.43,0,0,1,6.68-7.84c1.05-1.1,2.14-2.18,3.19-3.23,1.76-1.76,3.58-3.57,5.24-5.48a.11.11,0,1,0-.16-.14c-1.66,1.9-3.48,3.71-5.23,5.46-1.06,1-2.15,2.14-3.2,3.24a92.8,92.8,0,0,0-6.7,7.85.11.11,0,0,0,0,.16Z"/><path class="cls-3" d="M360.44,269.53h0a.1.1,0,0,0,.14-.06l4.05-9.86a13.57,13.57,0,0,1,2.7-4.69.1.1,0,0,0,0-.16.11.11,0,0,0-.15,0,13.86,13.86,0,0,0-2.75,4.76l-4.05,9.87A.1.1,0,0,0,360.44,269.53Z"/><path class="cls-3" d="M325,290.18l.25.1q2.19-1.47,4.71-3.09l1.8-1.15c.9-.58,1.84-1.17,2.8-1.76q1.94-1.21,4-2.46t4.24-2.5l.55-.32.33-.19h0l1-.59,1.93-1.1h0l2-1.09.12-.07c4.73-2.61,9.43-5,14.06-7.28l.75-.36,1.46-.7,2.2-1,2.34-1.06c6.09-2.73,12.06-5.1,17.86-7.1,1.84-.63,3.67-1.23,5.47-1.79l2.83-.85.1,0,.34-.1q5.28-1.52,10.36-2.7l.33-.08c5.79-1.34,11.38-2.35,16.7-3l.57-.07,2.93-.33h.08l.36,0a109.11,109.11,0,0,1,16.05-.47c8.51.42,13.31,1.95,14.64,2.42l.37.15a.12.12,0,0,0,.15-.06.1.1,0,0,0-.06-.14,24.88,24.88,0,0,0-4.2-1.22,66.06,66.06,0,0,0-10.87-1.37,109.14,109.14,0,0,0-16.15.48l-.38,0-2.94.33-.56.07a168.72,168.72,0,0,0-16.81,3.06l-.18,0-.17,0h0q-5.06,1.17-10.28,2.68l-.35.1-.35.1c-.93.27-1.87.56-2.82.85q-2.52.78-5.1,1.67c-1.39.48-2.8,1-4.22,1.51l-.27.1q-6.72,2.49-13.71,5.62l-2.34,1.07-2,.94-.77.36-.72.34c-4.84,2.32-9.75,4.86-14.69,7.58l-.25.14c-.7.38-1.39.77-2.08,1.16h0l-1.93,1.1-1.15.66h0L343,279h0l-.38.22c-1.39.81-2.77,1.62-4.15,2.46s-2.81,1.7-4.14,2.53l-2.81,1.76-1.8,1.15Q327.21,288.72,325,290.18Z"/><path class="cls-4" d="M110.29,116c-2-.88-4.05-1.78-6.16-1.41s-4,2.6-3.21,4.58c.57,1.39,2.13,2,3.56,2.5a61.22,61.22,0,0,0,23.17,2.75S115.81,118.45,110.29,116Z"/><path class="cls-4" d="M126.58,123.11c-4.48-4.7-5.13-11.76-5.46-18.24-.14-2.71.13-6.09,2.63-7.14,2-.85,4.38.5,5.4,2.41s1,4.18.93,6.34C129.79,112.74,126.58,123.11,126.58,123.11Z"/><path class="cls-4" d="M99.39,103.1a12.37,12.37,0,0,0-5.16-1.46,4.52,4.52,0,0,0-4.31,2.68,4.27,4.27,0,0,0,.08,2.8,8.18,8.18,0,0,0,5,4.68,24.21,24.21,0,0,0,7,1.11l13.39.8S105,105.66,99.39,103.1Z"/><path class="cls-4" d="M114.21,111.78a21.31,21.31,0,0,1-.34-22.59,3.32,3.32,0,0,1,1.27-1.33c1.78-.83,3.4,1.48,3.76,3.41C120.24,98.42,114.21,111.78,114.21,111.78Z"/><path class="cls-4" d="M103,97.79A132.67,132.67,0,0,0,86.72,85.54a5.31,5.31,0,0,0-2.4-1c-2.64-.16-3.86,3.76-2.35,5.93s4.34,2.91,6.93,3.48C93.46,95,103,97.79,103,97.79Z"/><path class="cls-4" d="M101.67,78.39c.68-1.8,2.13-3.81,4-3.44a3.1,3.1,0,0,1,2.22,3,9.25,9.25,0,0,1-.92,3.83L101.5,95.41S99.48,84.19,101.67,78.39Z"/><path class="cls-4" d="M84.5,75.94c-1.69-1.25-3.53-2.56-5.64-2.56s-4.27,2.09-3.52,4.05c.56,1.49,2.34,2,3.9,2.38a105.44,105.44,0,0,0,14.47,2S86.86,77.7,84.5,75.94Z"/><path class="cls-4" d="M93.22,79.38a29.46,29.46,0,0,1,.61-19.07c.47-1.23,1.21-2.58,2.5-2.83,1.51-.29,2.88,1.21,3,2.74a8.39,8.39,0,0,1-1.17,4.39C96.06,69.1,93.22,79.38,93.22,79.38Z"/><path class="cls-4" d="M89,70.74a39.6,39.6,0,0,0-8.58-13.83A10.35,10.35,0,0,0,76,53.82a4.31,4.31,0,0,0-4.84,1.54,4.4,4.4,0,0,0,.73,4.91,12.9,12.9,0,0,0,4.32,3C80.51,65.39,89,70.74,89,70.74Z"/><path class="cls-4" d="M84.85,56.28A43.63,43.63,0,0,0,84.77,38c-.67-3.08-2.46-6.69-5.61-6.66-2.68,0-4.56,3-4.5,5.65s1.48,5.11,2.78,7.46C79.55,48.29,84.85,56.28,84.85,56.28Z"/><path class="cls-3" d="M135.37,129.45h0a.11.11,0,0,1-.15,0,51.7,51.7,0,0,1-5.9-3.69,95.35,95.35,0,0,1-14-12.25A116.71,116.71,0,0,1,98.61,91,140,140,0,0,1,84.74,56.3a.11.11,0,0,1,.08-.13.11.11,0,0,1,.13.08A140.61,140.61,0,0,0,98.79,90.87a117.06,117.06,0,0,0,16.65,22.53,95.67,95.67,0,0,0,14,12.23,51.26,51.26,0,0,0,5.88,3.68A.11.11,0,0,1,135.37,129.45Z"/><path class="cls-4" d="M135.37,129.45h0a.11.11,0,0,1-.15,0,51.7,51.7,0,0,1-5.9-3.69,95.35,95.35,0,0,1-14-12.25A116.71,116.71,0,0,1,98.61,91,140,140,0,0,1,84.74,56.3a.11.11,0,0,1,.08-.13.11.11,0,0,1,.13.08A140.61,140.61,0,0,0,98.79,90.87a117.06,117.06,0,0,0,16.65,22.53,95.67,95.67,0,0,0,14,12.23,51.26,51.26,0,0,0,5.88,3.68A.11.11,0,0,1,135.37,129.45Z"/><path class="cls-2" d="M107.3,147.19a10.11,10.11,0,0,0,2.16-2,15.85,15.85,0,0,0,2.86-11.58c-.75-6.65-4.54-12.55-8.74-17.76C88.55,97.14,67.1,84.5,43.86,79c11.32,10,14.89,25.58,20,39.09,4.36,11.43,10.83,23.07,21.87,28.34C91.62,149.24,101.44,151.28,107.3,147.19Z"/><path class="cls-3" d="M120,169.52a.14.14,0,0,0,0-.11c-5.45-14.07-14.09-26.71-22.45-38.93-2.4-3.51-4.89-7.15-7.52-10.61a155,155,0,0,0-20.62-22,270.84,270.84,0,0,0-23.81-18.7.11.11,0,0,0-.15,0,.11.11,0,0,0,0,.15A273.82,273.82,0,0,1,69.3,98a155.74,155.74,0,0,1,20.59,22c2.62,3.45,5.11,7.08,7.51,10.6,8.35,12.21,17,24.83,22.42,38.88a.1.1,0,0,0,.14.06A.05.05,0,0,0,120,169.52Z"/><path class="cls-3" d="M105.89,141.85a.11.11,0,0,0,0-.07A146.83,146.83,0,0,0,103.3,116a.11.11,0,0,0-.22,0,146.38,146.38,0,0,1,2.62,25.74.11.11,0,0,0,.11.11A.12.12,0,0,0,105.89,141.85Z"/><path class="cls-3" d="M92.57,123.4a.19.19,0,0,0,0-.08c-.19-2-2.27-17.9-3.26-22.11a.12.12,0,0,0-.13-.08.11.11,0,0,0-.09.13c1,4.21,3.07,20.1,3.26,22.08a.11.11,0,0,0,.12.1A.12.12,0,0,0,92.57,123.4Z"/><path class="cls-3" d="M75.2,103.45a.09.09,0,0,0,0-.09c-1.15-4.9-3.48-11.53-6.58-15.45a.1.1,0,0,0-.15,0,.1.1,0,0,0,0,.15c3.07,3.9,5.39,10.5,6.54,15.37a.1.1,0,0,0,.13.08S75.18,103.47,75.2,103.45Z"/><path class="cls-3" d="M75.2,103.52l0,0a.1.1,0,0,0-.09-.12l-7.79-1.42a48.17,48.17,0,0,1-10.53-3.17.11.11,0,0,0-.15,0,.12.12,0,0,0,.06.15,47.56,47.56,0,0,0,10.58,3.18l7.79,1.42A.1.1,0,0,0,75.2,103.52Z"/><path class="cls-3" d="M92.57,123.4a.15.15,0,0,0,0-.09.11.11,0,0,0-.13-.09c-5.5,1-10.65-.67-16.1-2.4l-2.29-.72c-1.66-.51-3.54-1.17-5.35-1.81S65,117,63.37,116.47a.12.12,0,0,0-.14.08.11.11,0,0,0,.07.13c1.66.51,3.54,1.18,5.35,1.82s3.69,1.3,5.35,1.81l2.29.72c5.24,1.66,10.65,3.37,16.21,2.41Z"/><path class="cls-3" d="M105.5,141.17a.14.14,0,0,0,0-.07.11.11,0,0,0-.11-.11,133.23,133.23,0,0,1-31.08-4.45.1.1,0,0,0-.13.07.11.11,0,0,0,.08.14,133.06,133.06,0,0,0,31.13,4.46A.15.15,0,0,0,105.5,141.17Z"/><path class="cls-3" d="M120,169.52a.14.14,0,0,0,0-.11c-5.45-14.07-14.09-26.71-22.45-38.93-2.4-3.51-4.89-7.15-7.52-10.61a155,155,0,0,0-20.62-22,270.84,270.84,0,0,0-23.81-18.7.11.11,0,0,0-.15,0,.11.11,0,0,0,0,.15A273.82,273.82,0,0,1,69.3,98a155.74,155.74,0,0,1,20.59,22c2.62,3.45,5.11,7.08,7.51,10.6,8.35,12.21,17,24.83,22.42,38.88a.1.1,0,0,0,.14.06A.05.05,0,0,0,120,169.52Z"/><path class="cls-2" d="M105.67,273.11a26.74,26.74,0,0,0-3.16,2.53C88.84,288.2,83.45,307.1,86.59,325.16c17.34-1.44,34-14.37,41-30,1.49-3.35,2.6-7.09,1.73-10.64-1-4.14-4.47-7.16-7.88-9.72-2.59-1.95-5.45-3.86-8.68-4A11.78,11.78,0,0,0,105.67,273.11Z"/><path class="cls-3" d="M134.15,261l0,0A243.33,243.33,0,0,0,87,325a.1.1,0,0,1-.14,0,.11.11,0,0,1,0-.15,243.18,243.18,0,0,1,47.19-64,.1.1,0,0,1,.15,0A.09.09,0,0,1,134.15,261Z"/><path class="cls-3" d="M96.05,323.16a.11.11,0,0,1-.11.06.13.13,0,0,1-.1-.13l.37-2.42a100.22,100.22,0,0,0,1.19-14.4.11.11,0,0,1,.22,0,100.51,100.51,0,0,1-1.19,14.43l-.37,2.43A0,0,0,0,1,96.05,323.16Z"/><path class="cls-3" d="M106.54,318.55a.1.1,0,0,1-.13.05.1.1,0,0,1-.07-.13,25.4,25.4,0,0,0,.75-6c0-.45,0-.88.07-1.29.37-6,.6-12.92-.42-19a.11.11,0,0,1,.09-.13.1.1,0,0,1,.12.09c1,6.08.8,13,.43,19,0,.42,0,.84-.07,1.29a25.37,25.37,0,0,1-.76,6Z"/><path class="cls-3" d="M117.67,309.88a.11.11,0,0,1-.12.05.11.11,0,0,1-.09-.13c1.29-7.18,1.37-14.59,1.46-21.76,0-3,.07-6.38-1.42-9.22a.1.1,0,0,1,0-.14.11.11,0,0,1,.15,0c1.52,2.89,1.48,6.31,1.45,9.33-.09,7.17-.17,14.6-1.46,21.79C117.68,309.85,117.67,309.87,117.67,309.88Z"/><path class="cls-3" d="M97.6,306.32a.1.1,0,0,1-.06.05,32.48,32.48,0,0,0-11.72,7.77.11.11,0,0,1-.16-.16,32.86,32.86,0,0,1,11.81-7.82.11.11,0,0,1,.14.07A.1.1,0,0,1,97.6,306.32Z"/><path class="cls-3" d="M107,292.3a.11.11,0,0,1-.12.06,64.12,64.12,0,0,0-8.57,1.6,71,71,0,0,0-9.39,2.55.11.11,0,0,1-.15,0,.12.12,0,0,1,0-.15c2-1.09,17.18-4.41,18.11-4.18a.12.12,0,0,1,.08.14Z"/><path class="cls-3" d="M118.43,278.28a.1.1,0,0,1-.08.05,123.55,123.55,0,0,1-13.23,1.16H105c-2.53.11-5.16.23-7.43,1.33a.11.11,0,0,1-.15-.05.11.11,0,0,1,0-.14c2.32-1.13,5-1.25,7.52-1.36h.1a125.69,125.69,0,0,0,13.21-1.15.11.11,0,0,1,.13.09A.19.19,0,0,1,118.43,278.28Z"/><path class="cls-3" d="M134.15,261l0,0a246.9,246.9,0,0,0-26.34,30.16,243,243,0,0,0-21.09,34h0a.1.1,0,0,1-.14,0,.11.11,0,0,1,0-.15,242.39,242.39,0,0,1,21.1-34.07A247.43,247.43,0,0,1,134,260.87a.1.1,0,0,1,.15,0A.09.09,0,0,1,134.15,261Z"/><path class="cls-2" d="M92.4,260.49a10.25,10.25,0,0,1-.39,2.94,15.8,15.8,0,0,1-7.71,9.1c-5.82,3.28-12.83,3.67-19.51,3.32C40.84,274.6,18,264.61,0,249c14.7,3.34,29.45-2.9,43.43-6.63,11.82-3.16,25-4.72,35.77,1.14C84.88,246.58,92.28,253.35,92.4,260.49Z"/><path class="cls-3" d="M117.94,257.72a.11.11,0,0,1-.08.08c-14.6,3.82-29.9,4.22-44.69,4.6-4.27.11-8.67.22-13,.11a155.46,155.46,0,0,1-29.91-3.83,269.19,269.19,0,0,1-29.1-8.35.11.11,0,1,1,.07-.21,269.6,269.6,0,0,0,29.08,8.35,155.76,155.76,0,0,0,29.87,3.83c4.33.1,8.73,0,13-.12,14.78-.38,30.07-.78,44.65-4.59a.1.1,0,0,1,.13.07A.06.06,0,0,1,117.94,257.72Z"/><path class="cls-3" d="M87.24,262.48a.08.08,0,0,1,0,.06,145.9,145.9,0,0,1-22.43,13,.12.12,0,0,1-.15-.06.11.11,0,0,1,.06-.14,145.4,145.4,0,0,0,22.39-12.95.12.12,0,0,1,.16,0A.1.1,0,0,1,87.24,262.48Z"/><path class="cls-3" d="M64.48,262.48a.06.06,0,0,1,0,.06c-1.72,1-15.83,8.65-19.83,10.3a.1.1,0,0,1-.14,0,.11.11,0,0,1,.06-.15c4-1.65,18.08-9.28,19.8-10.29a.11.11,0,0,1,.15,0A.1.1,0,0,1,64.48,262.48Z"/><path class="cls-3" d="M38.15,260.08a.1.1,0,0,1-.07.07c-4.64,1.93-11.38,3.92-16.37,3.72a.12.12,0,0,1-.11-.12.1.1,0,0,1,.11-.1c5,.2,11.67-1.78,16.29-3.7a.1.1,0,0,1,.14.06A.15.15,0,0,1,38.15,260.08Z"/><path class="cls-3" d="M38.2,260s0,0,0,0a.12.12,0,0,1-.16,0l-5.71-5.48a47.36,47.36,0,0,0-8.73-6.68.11.11,0,0,1,0-.15.1.1,0,0,1,.15,0,48.18,48.18,0,0,1,8.78,6.71l5.7,5.48A.08.08,0,0,1,38.2,260Z"/><path class="cls-3" d="M64.48,262.48s0,0,0,.07a.12.12,0,0,1-.15-.05c-2.45-5-6.78-8.24-11.37-11.65L51,249.41c-1.38-1-3-2.18-4.6-3.27s-3.22-2.23-4.61-3.28a.12.12,0,0,1,0-.15.11.11,0,0,1,.16,0c1.38,1.05,3,2.18,4.6,3.27s3.22,2.23,4.6,3.28L53,250.67c4.41,3.28,9,6.66,11.44,11.73A.11.11,0,0,1,64.48,262.48Z"/><path class="cls-3" d="M86.46,262.56a.11.11,0,0,1-.19,0A133.62,133.62,0,0,0,64.46,240a.1.1,0,0,1,0-.15.12.12,0,0,1,.16,0,133.28,133.28,0,0,1,21.84,22.63A.12.12,0,0,1,86.46,262.56Z"/><path class="cls-3" d="M117.94,257.72a.11.11,0,0,1-.08.08c-14.6,3.82-29.9,4.22-44.69,4.6-4.27.11-8.67.22-13,.11a155.46,155.46,0,0,1-29.91-3.83,269.19,269.19,0,0,1-29.1-8.35.11.11,0,1,1,.07-.21,269.6,269.6,0,0,0,29.08,8.35,155.76,155.76,0,0,0,29.87,3.83c4.33.1,8.73,0,13-.12,14.78-.38,30.07-.78,44.65-4.59a.1.1,0,0,1,.13.07A.06.06,0,0,1,117.94,257.72Z"/><path class="cls-4" d="M123.12,265c-18.45-8.82-41.15-4.44-58.33,6.64S35,299.59,24,316.81a65.42,65.42,0,0,1,26.73-16.49c13.83-4.42,28.73-4.12,42.84-7.57S122.15,280.3,125,266.07Z"/><path class="cls-3" d="M151.7,261.65l-.13.24c-1.74.17-3.62.37-5.6.61l-2.12.26-3.28.42-4.66.67c-1.63.24-3.25.5-4.86.76l-.63.11-.37.06h0l-1.18.2-2.18.39h0l-2.2.4-.15,0q-7.95,1.49-15.48,3.33l-.8.2-1.57.39-2.34.61-2.48.68q-9.66,2.65-18.3,5.9-2.73,1-5.36,2.1l-2.72,1.15-.09,0-.33.14q-5,2.19-9.7,4.51l-.31.16a169,169,0,0,0-14.81,8.29l-.48.31c-.83.53-1.66,1.07-2.47,1.61h0l-.06,0a3.13,3.13,0,0,0-.3.2,108.34,108.34,0,0,0-12.68,9.85c-6.29,5.75-9,10-9.74,11.19l-.2.35a.11.11,0,0,1-.15.05.12.12,0,0,1,0-.15,28.12,28.12,0,0,1,2.48-3.61,65.25,65.25,0,0,1,7.5-8,108.86,108.86,0,0,1,12.76-9.91l.31-.21c.81-.54,1.63-1.08,2.47-1.62l.48-.3a168.66,168.66,0,0,1,14.92-8.36l.16-.08.16-.07h0q4.64-2.31,9.62-4.48l.34-.15.33-.14c.9-.39,1.81-.77,2.72-1.14,1.63-.67,3.3-1.32,5-2,1.39-.52,2.79-1,4.22-1.53l.27-.09q6.78-2.36,14.16-4.39l2.48-.67,2.15-.56.82-.21.77-.19c5.21-1.29,10.62-2.47,16.16-3.51l.28-.05,2.35-.43h0l2.18-.38,1.31-.23h0l.37-.06h0l.44-.07c1.58-.26,3.17-.51,4.76-.75s3.25-.47,4.81-.68l3.28-.43,2.12-.26Q149.08,261.91,151.7,261.65Z"/><path class="cls-3" d="M113.25,268.53v0a230.58,230.58,0,0,1-18.9,23.62.11.11,0,0,1-.15,0,.1.1,0,0,1,0-.15,231.51,231.51,0,0,0,18.88-23.6.11.11,0,0,1,.15,0A.1.1,0,0,1,113.25,268.53Z"/><path class="cls-3" d="M87.79,278.17a59.79,59.79,0,0,1-14.54,17.91.11.11,0,0,1-.15,0,.12.12,0,0,1,0-.16,59,59,0,0,0,15.71-20.36.1.1,0,0,1,.14-.05.11.11,0,0,1,.06.14C88.64,276.48,88.23,277.33,87.79,278.17Z"/><path class="cls-3" d="M62.63,290.2a44.55,44.55,0,0,1-5.6,8.5.1.1,0,0,1-.15,0,.11.11,0,0,1,0-.16A54.41,54.41,0,0,0,65,284.67a.12.12,0,0,1,.14-.06.12.12,0,0,1,.06.15Q63.94,287.7,62.63,290.2Z"/><path class="cls-3" d="M44.57,302.67a.11.11,0,0,1-.12.05.11.11,0,0,1-.09-.13,36.14,36.14,0,0,1,2.54-7.46l0,0a.1.1,0,0,1,.14-.05.11.11,0,0,1,0,.15h0a35.37,35.37,0,0,0-2.53,7.42A.08.08,0,0,0,44.57,302.67Z"/><path class="cls-3" d="M47.11,295.21a.11.11,0,0,1-.1.06c-1.22,0-2.64-.07-4-.09s-2.8,0-4-.09a.11.11,0,0,1-.11-.11.11.11,0,0,1,.12-.1c1.21,0,2.64.06,4,.08s2.8,0,4,.09a.1.1,0,0,1,.1.11A.07.07,0,0,1,47.11,295.21Z"/><path class="cls-3" d="M65.21,284.77a.11.11,0,0,1-.12.05,107.29,107.29,0,0,0-14.87-1.36.1.1,0,0,1-.1-.11.11.11,0,0,1,.11-.11,107.53,107.53,0,0,1,14.9,1.37.11.11,0,0,1,.09.12A.08.08,0,0,0,65.21,284.77Z"/><path class="cls-3" d="M87.64,275.2a.11.11,0,0,1-.12.06,89.83,89.83,0,0,0-10.15-1.79c-1.5-.18-3-.32-4.52-.46-2.47-.24-5-.48-7.53-.88a.11.11,0,0,1,0-.22c2.49.41,5,.65,7.51.88,1.49.14,3,.28,4.53.46A95.35,95.35,0,0,1,87.57,275a.12.12,0,0,1,.08.13Z"/><path class="cls-3" d="M111.24,268.28h0a.11.11,0,0,1-.15,0l-9.4-5a13.74,13.74,0,0,0-5.07-1.89.11.11,0,0,1-.1-.12.11.11,0,0,1,.12-.1,14,14,0,0,1,5.15,1.92l9.41,5A.11.11,0,0,1,111.24,268.28Z"/><path class="cls-3" d="M151.7,261.65l-.13.24c-1.74.17-3.62.37-5.6.61l-2.12.26-3.28.42-4.66.67c-1.63.24-3.25.5-4.86.76l-.63.11-.37.06h0l-1.18.2-2.18.39h0l-2.2.4-.15,0q-7.95,1.49-15.48,3.33l-.8.2-1.57.39-2.34.61-2.48.68q-9.66,2.65-18.3,5.9-2.73,1-5.36,2.1l-2.72,1.15-.09,0-.33.14q-5,2.19-9.7,4.51l-.31.16a169,169,0,0,0-14.81,8.29l-.48.31c-.83.53-1.66,1.07-2.47,1.61h0l-.06,0a3.13,3.13,0,0,0-.3.2,108.34,108.34,0,0,0-12.68,9.85c-6.29,5.75-9,10-9.74,11.19l-.2.35a.11.11,0,0,1-.15.05.12.12,0,0,1,0-.15,28.12,28.12,0,0,1,2.48-3.61,65.25,65.25,0,0,1,7.5-8,108.86,108.86,0,0,1,12.76-9.91l.31-.21c.81-.54,1.63-1.08,2.47-1.62l.48-.3a168.66,168.66,0,0,1,14.92-8.36l.16-.08.16-.07h0q4.64-2.31,9.62-4.48l.34-.15.33-.14c.9-.39,1.81-.77,2.72-1.14,1.63-.67,3.3-1.32,5-2,1.39-.52,2.79-1,4.22-1.53l.27-.09q6.78-2.36,14.16-4.39l2.48-.67,2.15-.56.82-.21.77-.19c5.21-1.29,10.62-2.47,16.16-3.51l.28-.05,2.35-.43h0l2.18-.38,1.31-.23h0l.37-.06h0l.44-.07c1.58-.26,3.17-.51,4.76-.75s3.25-.47,4.81-.68l3.28-.43,2.12-.26Q149.08,261.91,151.7,261.65Z"/><path class="cls-4" d="M94.16,223.3c-1.63-1.39-3.34-2.91-3.9-5s.65-4.74,2.79-4.85c1.5-.07,2.75,1.07,3.77,2.17a61.08,61.08,0,0,1,12.33,19.8S98.76,227.24,94.16,223.3Z"/><path class="cls-4" d="M107.56,235c-6.16-2.06-12.83.35-18.84,2.8-2.51,1-5.46,2.71-5.35,5.42.09,2.16,2.32,3.75,4.48,3.87s4.22-.85,6.14-1.86C99.53,242.32,107.56,235,107.56,235Z"/><path class="cls-4" d="M77.89,218.89a12.15,12.15,0,0,1-3.51-4,4.53,4.53,0,0,1,.59-5,4.36,4.36,0,0,1,2.58-1.12,8.18,8.18,0,0,1,6.37,2.58,24.3,24.3,0,0,1,4,5.86l6.42,11.78S82.58,222.86,77.89,218.89Z"/><path class="cls-4" d="M92,228.63a21.29,21.29,0,0,0-20.59,9.28,3.24,3.24,0,0,0-.66,1.72c0,2,2.78,2.44,4.68,2C82.51,239.75,92,228.63,92,228.63Z"/><path class="cls-4" d="M74.6,224.38a130.24,130.24,0,0,1-18-9.5,5.29,5.29,0,0,1-1.94-1.75c-1.27-2.32,1.76-5.09,4.37-4.64s4.48,2.69,6.09,4.79C68,217,74.6,224.38,74.6,224.38Z"/><path class="cls-4" d="M56.49,231.45c-1.34,1.38-2.54,3.55-1.41,5.1a3.09,3.09,0,0,0,3.61.75,9,9,0,0,0,3.08-2.45q5-5.4,10.06-10.78S60.81,227,56.49,231.45Z"/><path class="cls-4" d="M47,217c-1.85-1-3.82-2.12-4.71-4s.07-4.76,2.17-4.91c1.59-.12,2.85,1.25,3.81,2.52a104.05,104.05,0,0,1,8,12.23S49.57,218.33,47,217Z"/><path class="cls-4" d="M53.8,223.38a29.48,29.48,0,0,0-17,8.65c-.91.95-1.82,2.19-1.5,3.46.38,1.49,2.32,2.1,3.77,1.6a8.46,8.46,0,0,0,3.48-2.93C45.69,230.31,53.8,223.38,53.8,223.38Z"/><path class="cls-4" d="M44.2,223.26A39.55,39.55,0,0,1,28,221.37a10.41,10.41,0,0,1-4.68-2.69,4.3,4.3,0,0,1-.66-5,4.39,4.39,0,0,1,4.75-1.43A12.75,12.75,0,0,1,32,214.86C35.73,217.81,44.2,223.26,44.2,223.26Z"/><path class="cls-4" d="M29.32,225.61a43.65,43.65,0,0,1-16.54,7.68c-3.07.7-7.1.61-8.41-2.25-1.12-2.44.74-5.4,3.2-6.48s5.26-.83,7.94-.65C19.85,224.2,29.32,225.61,29.32,225.61Z"/><path class="cls-3" d="M117,240.27h0a.1.1,0,0,0,0-.15,50.86,50.86,0,0,0-5.85-3.78,95.51,95.51,0,0,0-17-7.49,116.63,116.63,0,0,0-27.52-5.52A140.23,140.23,0,0,0,29.3,225.5a.1.1,0,0,0-.08.13.1.1,0,0,0,.12.09,139.71,139.71,0,0,1,37.22-2.17A116.6,116.6,0,0,1,94,229.05a95.47,95.47,0,0,1,17,7.48,50.07,50.07,0,0,1,5.83,3.76A.1.1,0,0,0,117,240.27Z"/><path class="cls-4" d="M117,240.27h0a.1.1,0,0,0,0-.15,50.86,50.86,0,0,0-5.85-3.78,95.51,95.51,0,0,0-17-7.49,116.63,116.63,0,0,0-27.52-5.52A140.23,140.23,0,0,0,29.3,225.5a.1.1,0,0,0-.08.13.1.1,0,0,0,.12.09,139.71,139.71,0,0,1,37.22-2.17A116.6,116.6,0,0,1,94,229.05a95.47,95.47,0,0,1,17,7.48,50.07,50.07,0,0,1,5.83,3.76A.1.1,0,0,0,117,240.27Z"/><path class="cls-5" d="M369.54,141.15C330.11,113.92,249.74,97,206.74,58.34S85.09,71.75,75.68,152.65s21.83,155,80.42,179.29H360.94C421.11,272.87,409,168.38,369.54,141.15Z"/><path class="cls-5" d="M241.18,57.46C275.34,90.75,363.39,129.32,361,96.83,357.07,42.93,217.28,34.17,241.18,57.46Z"/><g class="cls-6"><path class="cls-7" d="M441.17,300.78h0A3.22,3.22,0,0,0,438,304v-.27h-1.67a7.11,7.11,0,0,1-6-3.28,7.83,7.83,0,0,0-6.62-3.65H400.19V267.25a9.32,9.32,0,0,0-6.06-8.73v-3.6l.56-6.55c.24-2.77.36-5.55.38-8.32a105,105,0,0,0-.83-13.84l-2.62-20.74a4.8,4.8,0,0,0-.11-.57l-.07-.25c-.07-.19-.14-.38-.23-.57a4.49,4.49,0,0,0-4.06-2.55h-.32l-.22,0h0a4.51,4.51,0,0,0-.53.1h0a4.51,4.51,0,0,0-3.36,3.8l-2.62,20.74a105.25,105.25,0,0,0-.45,22.16l.56,6.55v3.6a9.32,9.32,0,0,0-6.06,8.73V296.8H360.8V230.63a33.56,33.56,0,0,0-11.49-25.29L344,200.71a13.49,13.49,0,0,1-4.4-7.81h0a10,10,0,0,1-.15-1.1s0-.06,0-.08a1.34,1.34,0,0,1,0-.2c0-.05,0-.1,0-.15v-.16a1.34,1.34,0,0,1,0-.2s0-.08,0-.13v-1.15a4.49,4.49,0,0,0,4.16-4.48v-5.36h.12a1.68,1.68,0,0,0,1.68-1.68v-3a1.68,1.68,0,0,0-1.68-1.68h-.12v-4.35h.12a1.68,1.68,0,0,0,1.68-1.68v-3a1.69,1.69,0,0,0-1.68-1.69h-.12v-1a4.49,4.49,0,0,0-4.48-4.49H305.22a4.49,4.49,0,0,0-4.49,4.49v1h-.12a1.69,1.69,0,0,0-1.68,1.69v3a1.68,1.68,0,0,0,1.68,1.68h.12v4.35h-.12a1.68,1.68,0,0,0-1.68,1.68v3a1.68,1.68,0,0,0,1.68,1.68h.12v5.36a4.49,4.49,0,0,0,4.16,4.48v1.16s0,.08,0,.12v.2a.86.86,0,0,0,0,.16.76.76,0,0,0,0,.15c0,.07,0,.13,0,.19a.38.38,0,0,1,0,.1,10.19,10.19,0,0,1-.15,1.09h0a13.49,13.49,0,0,1-4.4,7.81L295,205.34a33.46,33.46,0,0,0-6.93,8.38l-.28.5-.12.22c-.12.21-.23.41-.33.62l-.12.22-.26.51-.09.19-.3.64-.11.24c-.1.21-.19.43-.28.64a1.34,1.34,0,0,0-.07.18c-.08.18-.16.37-.23.56l-.09.22c-.09.22-.17.45-.25.67l-.08.21c-.07.19-.13.39-.2.58l-.06.17c-.07.24-.15.47-.22.7a1.87,1.87,0,0,1-.07.22c-.07.24-.14.48-.2.72l0,.1c-.06.22-.12.44-.17.66a1.94,1.94,0,0,0-.05.2c-.06.25-.12.49-.17.73,0,.06,0,.12,0,.18,0,.21-.09.43-.13.65l0,.15c0,.07,0,.15,0,.22-.07-1.38-.1-2.77-.1-4.16V204.77h0a3.17,3.17,0,0,0-3.16-3.16l-.26,0h0a3.15,3.15,0,0,0-2.87,3.14v15.69a85.72,85.72,0,0,1-3.63,24.7h0a122.13,122.13,0,0,0-4.79,25.62q-.26,3.36-.44,6.72h0c-.07,1.34-.14,2.69-.19,4v.13c-.05,1.31-.1,2.63-.13,3.95a1.85,1.85,0,0,0,0,.23c0,.58,0,1.15,0,1.73,0,.09,0,.18,0,.27l0,1.89V290c0,.53,0,1.06,0,1.59v.48c0,.61,0,1.22,0,1.84v31.24a5.07,5.07,0,0,0,5.08,5.08h14.77a5.07,5.07,0,0,0,3.61-1.51l.18.08.09.05.2.09h0a4.4,4.4,0,0,0,.5.21l.06,0,.21.08.1,0,.2.07.11,0,.2.07.11,0,.21.07.06,0,.52.15h0a14.88,14.88,0,0,0,3.75.48H423.65a7.83,7.83,0,0,0,2.57-.43l.29-.11.19-.08.25-.11.32-.16a7.89,7.89,0,0,0,3-2.76,7.12,7.12,0,0,1,1.7-1.84,6.74,6.74,0,0,1,.62-.42l.16-.09a7.18,7.18,0,0,1,3.53-.93H438V323a3.22,3.22,0,0,0,3.22,3.23h0A3.23,3.23,0,0,0,444.4,323V304A3.23,3.23,0,0,0,441.17,300.78Z"/><path class="cls-7" d="M260.57,255.66h-4.4V155.45a8.07,8.07,0,0,0-.39-2.5,7.86,7.86,0,0,0-.48-1.16,7.94,7.94,0,0,0-1.78-2.34l-5.53-5c-.18-.17-.36-.34-.52-.52s-.32-.36-.47-.55a7,7,0,0,1-.6-.9,8.67,8.67,0,0,1-.49-1c-.09-.22-.17-.45-.25-.68s-.12-.41-.17-.61-.06-.26-.08-.39h0l-.06-.4-.2-1.43h1.18a2.44,2.44,0,0,0,2.44-2.44h0a2.44,2.44,0,0,0-2.44-2.44h-.11l-1.28-12.67a1.23,1.23,0,0,0,0-.19c0-.07,0-.15,0-.22a3.18,3.18,0,0,0-.09-.33,2.53,2.53,0,0,0-.12-.36s0-.11-.07-.17a3.42,3.42,0,0,0-.23-.42l-.07-.12a5.37,5.37,0,0,0-.35-.45l-.18-.19h0a4,4,0,0,0-.38-.32l-.07-.06-.2-.14-.12-.07a4,4,0,0,0-1.74-.55v-2.42h0v-.49a1.57,1.57,0,0,0-1.57-1.57h-.82V60.76a35,35,0,0,0-1.56-10.31l-.85-2.75a.12.12,0,0,0-.23,0V81h0v31.3h-.83a1.57,1.57,0,0,0-1.57,1.57v2.91a3.89,3.89,0,0,0-1,.2l-.18.06-.33.15a3.64,3.64,0,0,0-.47.28,4.15,4.15,0,0,0-.56.46,3.2,3.2,0,0,0-.25.27,4,4,0,0,0-.72,1.27l-.06.18a2.37,2.37,0,0,0-.09.36,2.5,2.5,0,0,0-.06.38l-1.19,11.81h0l-.09.86h-.11a2.44,2.44,0,0,0-2.44,2.44h0a2.44,2.44,0,0,0,2.44,2.44h1.18l-.2,1.43c0,.13,0,.27-.06.4h0l-.09.39a8.34,8.34,0,0,1-2.49,4.22l-5.53,5a8.1,8.1,0,0,0-2.66,6v95.29h0v4.92h-4.4a3.87,3.87,0,1,0,0,7.74h10.21v2.38h0v54.94h0v1.78h-4.05a3.87,3.87,0,1,0,0,7.74h33.77a3.87,3.87,0,0,0,0-7.74h-4V263.4h10.2a3.87,3.87,0,1,0,0-7.74Zm-39.45,0h0Z"/><path class="cls-7" d="M204.05,240.45l-.06-.16-.17-.38c-.11-.22-.22-.43-.35-.64a7.9,7.9,0,0,0-2.53-2.58,6.91,6.91,0,0,1-1.94-1.83c-.11-.16-.21-.32-.31-.48l-.09-.16a7.19,7.19,0,0,1-.93-3.54V229h-.28a3.23,3.23,0,0,0,3.22-3.23h0a3.22,3.22,0,0,0-3.22-3.22h-9.74a31.86,31.86,0,0,0-12.88-22.95,17.45,17.45,0,0,1-7.15-14v-5h1.16a4.2,4.2,0,0,0,4.19-4.19v-4h1.79a3.25,3.25,0,0,0,3.25-3.25v-9.11a3.25,3.25,0,0,0-3.25-3.25H112.85a3.25,3.25,0,0,0-3.25,3.25v9.11a3.25,3.25,0,0,0,3.25,3.25h1.79v4a4.2,4.2,0,0,0,4.2,4.19H120v5a17.42,17.42,0,0,1-7.15,14A32,32,0,0,0,103,211.46h0l-.16.34,0,.07a2.92,2.92,0,0,0-.14.31l0,.09c0,.1-.08.2-.13.3a.61.61,0,0,1,0,.12l-.12.28a.69.69,0,0,0,0,.13l-.12.28-.05.14c0,.09-.08.18-.11.27l-.06.14c0,.1-.07.19-.1.28a.88.88,0,0,0,0,.15c0,.09-.07.18-.1.27l-.06.15-.09.28,0,.15-.09.28s0,.1,0,.14l-.09.29c0,.05,0,.09,0,.14l-.09.29a.74.74,0,0,1,0,.14c0,.1-.06.2-.08.3l0,.1c-.1.38-.2.76-.29,1.15v.05c0,.1,0,.19-.07.29l0,.16-.06.26c0,.07,0,.13,0,.2s0,.16,0,.24a1.55,1.55,0,0,1,0,.21c0,.08,0,.16,0,.24s0,.15,0,.22a2,2,0,0,1,0,.24l0,.22a1.85,1.85,0,0,0,0,.23l0,.23,0,.23,0,.24,0,.22,0,.24c0,.08,0,.15,0,.23l0,.24a1.79,1.79,0,0,1,0,.23,1.94,1.94,0,0,1,0,.24,1.79,1.79,0,0,1,0,.23c0,.08,0,.17,0,.25s0,.14,0,.22,0,.17,0,.26,0,.14,0,.21a2.62,2.62,0,0,0,0,.28c0,.06,0,.13,0,.2s0,.2,0,.31v.63h0V237a85.71,85.71,0,0,1-1.61-16.54V204.77a3.42,3.42,0,0,0-.1-.79l-.06-.2a3.64,3.64,0,0,0-.25-.57,2.9,2.9,0,0,0-.19-.29c0-.06-.09-.12-.14-.17a3.13,3.13,0,0,0-2.42-1.14l-.26,0h0a3.15,3.15,0,0,0-2.87,3.14v15.69a85.72,85.72,0,0,1-3.63,24.7h0a121.47,121.47,0,0,0-4.78,25.62q-.27,3.36-.45,6.72h0c-.07,1.34-.14,2.69-.19,4v.13c-.05,1.31-.1,2.63-.13,3.95v.24c0,.57,0,1.14,0,1.72a2.44,2.44,0,0,1,0,.27l0,1.89V290c0,.53,0,1.06,0,1.59v.48c0,.61,0,1.22,0,1.84v2.88H57.56a7.83,7.83,0,0,0-6.62,3.65,7.11,7.11,0,0,1-6,3.28H43.26V304A3.22,3.22,0,0,0,40,300.78h0A3.23,3.23,0,0,0,36.81,304v19A3.23,3.23,0,0,0,40,326.26h0A3.22,3.22,0,0,0,43.26,323v.28h1.67a7.18,7.18,0,0,1,3.53.93l.16.09c.21.13.42.27.62.42a7.12,7.12,0,0,1,1.7,1.84,7.86,7.86,0,0,0,2.88,2.7l.44.22.25.11.19.08.25.09a7.82,7.82,0,0,0,2.61.45H174.43l.74,0,.43,0h24.55a4.42,4.42,0,0,0,3.56-1.79,4.46,4.46,0,0,0,.45-.73c.05-.11.1-.23.14-.34a4.41,4.41,0,0,0,.3-1.59h0V243.32h0a7.9,7.9,0,0,0-.44-2.58C204.13,240.65,204.09,240.55,204.05,240.45Z"/></g><path class="cls-8" d="M400.62,233.58a3.49,3.49,0,1,0,3,3.83A3.46,3.46,0,0,0,400.62,233.58Z"/><path class="cls-9" d="M409.59,238.05a9.43,9.43,0,0,1-12.83,7.86,9.12,9.12,0,0,1-2.15-1.22,9.49,9.49,0,1,1,15-6.64Zm-9.73,2.46a3.49,3.49,0,1,0-3-3.84A3.48,3.48,0,0,0,399.86,240.51Z"/><path class="cls-9" d="M165.74,43.8a.81.81,0,0,0,.49,1l.85.31a.47.47,0,0,1,.28.6l-.09.25a.63.63,0,0,0,.38.8l1.41.51a3.46,3.46,0,0,0,2.3-6.53l-1.4-.51a.63.63,0,0,0-.8.39l-.09.25a.47.47,0,0,1-.59.29l-.85-.31a.8.8,0,0,0-1,.5h0l-.85,2.41Z"/><path class="cls-9" d="M190.22,51.18a3.46,3.46,0,0,0,2.06,4.42l1.41.5a.63.63,0,0,0,.8-.38l.08-.26a.47.47,0,0,1,.6-.28l.85.3a.79.79,0,0,0,1-.48h0l.85-2.4v0a.81.81,0,0,0-.48-1l-.86-.31a.46.46,0,0,1-.27-.6l.08-.25a.63.63,0,0,0-.37-.8l-1.41-.5A3.42,3.42,0,0,0,190.22,51.18Z"/><path class="cls-8" d="M134,83.45a3.24,3.24,0,0,1,1.3.17,3.18,3.18,0,0,1,1.1.68c3.06-8.41,10.92-28.54,19.09-37.56a10,10,0,0,1,10.21-2.94h0l.85-2.41A12.52,12.52,0,0,0,153.67,45C145.08,54.49,137.13,74.91,134,83.45Z"/><path class="cls-8" d="M197.05,55h0a10.07,10.07,0,0,1,6.07,8.76c.68,12.19-5.84,32.8-8.74,41.26a3.11,3.11,0,0,1,1.27.18,3.06,3.06,0,0,1,1.12.69c3-8.59,9.6-29.48,8.88-42.28a12.62,12.62,0,0,0-7.74-11Z"/><path class="cls-8" d="M68.28,201.39c-2.71,9.29.62,19,9.39,27.26l.09.08a42.44,42.44,0,0,0,17,8,56.15,56.15,0,0,0,18.47.73c12.61-1.39,25.7-5.86,39.55-10.59,24.34-8.33,49.52-16.93,72.64-8l.07,0c11.67,3.69,23.44,13.33,34.82,22.66,8.22,6.74,16,13.11,23.72,17.38a107.6,107.6,0,0,0,29.72,10.8c3.79.79,7.63,1.39,11.47,1.8a112.33,112.33,0,0,0,20.62.36,82.54,82.54,0,0,0,29.35-7.44c9.22-4.42,16.41-10.52,21.38-18.14a1.23,1.23,0,0,0,.16-.35,9.12,9.12,0,0,1-2.15-1.22l-.12.16c-9.13,14-26.47,22.69-48.8,24.44-20.58,1.6-43.17-3.13-60.41-12.66-7.53-4.16-15.21-10.45-23.35-17.12-11.55-9.47-23.49-19.26-35.61-23.1-24-9.22-49.56-.46-74.32,8-26.19,9-51,17.43-71,3.52a19.6,19.6,0,0,1-3-2.54c-7-7.27-9.59-15.47-7.31-23.28,2.9-9.91,13.16-17.65,26.78-20.2l3.61-.66c8.66-1.57,18.48-3.35,26.82-7.62a36.35,36.35,0,0,0,18.38-20.7,3.18,3.18,0,0,1-.69,0,3,3,0,0,1-.72-.16,3.27,3.27,0,0,1-1-.59c-7.42,20.06-26.4,23.5-43.21,26.55l-3.64.66C82.46,182.12,71.44,190.55,68.28,201.39Z"/><path class="cls-9" d="M129.37,91a35.71,35.71,0,0,0,1.32,27.21,35,35,0,0,0,17,17L143,148.68a3.23,3.23,0,0,0,.91,3.5,3.27,3.27,0,0,0,1,.59,3,3,0,0,0,.72.16,3.14,3.14,0,0,0,3.32-2.12l4.75-13.45a35.23,35.23,0,0,0,5,.92,34.67,34.67,0,0,0,18.85-3.3,35.42,35.42,0,0,0,18.09-20.26l1.92-5.44a3.22,3.22,0,0,0-.8-3.39,3.06,3.06,0,0,0-1.12-.69,3.11,3.11,0,0,0-1.27-.18,3.21,3.21,0,0,0-2.77,2.13l-1.92,5.44a29.06,29.06,0,0,1-14.84,16.61,28.34,28.34,0,0,1-22.06,1.19,29.21,29.21,0,0,1-17.45-37.25l1.92-5.43a3.17,3.17,0,1,0-6-2.14Z"/><path class="cls-10" d="M195.42,332.35c-67.57,0-70.73-131.75-70.73-131.75,24-6.13,36.21-29.86,36.21-29.86s13.71-3.18,34.52-3.18,34.51,3.18,34.51,3.18,12.19,23.73,36.22,29.86C266.15,200.6,263,332.35,195.42,332.35Z"/><path class="cls-9" d="M195.42,323.26a37,37,0,0,1-18-4.52,48.2,48.2,0,0,1-14.35-12.55c-7.91-9.94-14.48-24.05-19.52-41.95a280.07,280.07,0,0,1-8.22-43.79c-.61-5.46-1-10.11-1.19-13.4,17.39-7,28.2-21.39,32.52-28.15a185.19,185.19,0,0,1,57.56,0c4.32,6.76,15.12,21.12,32.51,28.15-.21,3.29-.58,7.94-1.18,13.4a280.25,280.25,0,0,1-8.23,43.79c-5,17.9-11.6,32-19.51,41.95a48.44,48.44,0,0,1-14.35,12.55A37,37,0,0,1,195.42,323.26Z"/><polygon class="cls-10" points="240.16 227.49 208.25 227.49 208.25 195.15 182.76 195.15 182.76 227.49 150.85 227.49 150.85 253.32 182.76 253.32 182.76 285.65 208.25 285.65 208.25 253.32 240.16 253.32 240.16 227.49"/><path class="cls-8" d="M279.21,129.53s-1.29,26.85-37.71,40.23L237.82,168l.83-1.62h0l28.1-50.95A51.84,51.84,0,0,1,277,120.68,7.65,7.65,0,0,0,279.21,129.53Z"/><path class="cls-9" d="M237.81,109.19s20.11-.53,35.54,9.76a7.65,7.65,0,0,0,2.18,8.85s-1.29,26.85-37.71,40.23c0,0-21.29-20.6-9.11-53.82C228.71,114.21,235.24,115.73,237.81,109.19Z"/><polygon class="cls-10" points="262.31 135.96 252.87 133.28 255.54 123.83 247.59 121.58 244.91 131.02 235.47 128.34 233.22 136.29 242.66 138.97 239.98 148.41 247.93 150.67 250.61 141.23 260.05 143.91 262.31 135.96"/><rect class="cls-11" x="49.61" y="331.76" width="357.79" height="5.59"/><path class="cls-12" d="M129.75,265.49C118.13,257,90.38,276.33,136,300.8,170.45,262.21,137.77,253.56,129.75,265.49Z"/><path class="cls-10" d="M115.32,285.33c2.49-.54,5-1.05,7.46-1.55l-.15.1q1.7-3,3.47-5.88l.53-.87.42,1c.71,1.57,1.42,3.15,2.09,4.74s1.35,3.17,2,4.77l-1.38,0c1-2.16,2-4.31,3-6.46s2.07-4.29,3.13-6.42l.5-1,.58.93c1.29,2.08,2.58,4.17,3.84,6.28l-.43-.19c1.6-.24,3.2-.43,4.79-.65s3.2-.43,4.8-.61c-1.57.38-3.14.72-4.72,1.07s-3.14.7-4.72,1l-.26.05-.17-.23q-2.1-3-4.17-6.07l1.08-.08c-.95,2.19-1.92,4.36-2.9,6.53s-2,4.32-3,6.47l-.75,1.55-.64-1.58c-.64-1.61-1.27-3.21-1.88-4.82s-1.22-3.24-1.81-4.86l.94.09q-1.95,2.81-4,5.55l-.07.09h-.09Q119.1,284.8,115.32,285.33Z"/><circle class="cls-12" cx="77.61" cy="149.27" r="20.15"/><rect class="cls-10" x="74.28" y="136.75" width="8.27" height="24.8" transform="translate(227.55 70.74) rotate(90)"/><rect class="cls-10" x="74.28" y="136.75" width="8.27" height="24.8"/><path class="cls-13" d="M304,92.59c0-.91,1-3.14,1.35-4.1s1.6-3.64.4-4.47-2,2.69-2,3.24a25.53,25.53,0,0,1-1.56,3.42c-.24-.78,1.64-5.55.45-5.77s-2.5,5-2.45,5.53a8.48,8.48,0,0,1-.76,2.27c0-.07,0-2.27,0-2.77s.93-2.66-.39-2.65-1.78,5.92-1.79,6.53a14.31,14.31,0,0,0-.31,2.22,30.84,30.84,0,0,1,0,3.64c0,.28,0,.52-.07.68-.16.84-2.84,3.31-2.84,3.31.08.33,5.07,3.93,7.16,2.72,0,0,.8-1.48,1.7-2.82a7.47,7.47,0,0,1,1.78-2.06,8.43,8.43,0,0,0,3.45-4.21c.33-1.51,3.81-3.08,2.44-3.79s-2.85.74-3.29,1.56a18.45,18.45,0,0,1-1.73,2.3,14.25,14.25,0,0,1,.09-2.33,17.63,17.63,0,0,1,1.61-4.31c.95-1.88,2.25-3.73,1.21-4.88S304,92.59,304,92.59Z"/><path class="cls-14" d="M331.4,331.78l-20.69.23.1-3.45,6.59-5.63a.64.64,0,0,0,0-.07c0-1.36.1-3.2.17-5.24.17-5.09.4-11.43.52-14.75.05-1.41.08-2.28.08-2.28l16.87,2s-.2.86-.5,2.23c-.75,3.31-2.18,9.65-3.31,14.42-.42,1.81-.8,3.39-1.08,4.5,0,.16.07.31.09.44C330.53,325.59,331.4,331.78,331.4,331.78Z"/><path class="cls-15" d="M317.41,322.88c-.22-.26-.54-.46-.79-.34s-6.59,4.35-6.89,4.56a1.27,1.27,0,0,0-.5,1.15c0,.67-.12,4.46-.12,4.46l22.72-.26s-.71-6.57-.76-6.93-.47-.84-.72-.83a20.46,20.46,0,0,1-4.83.7,15,15,0,0,1-6.26-.93A6.69,6.69,0,0,1,317.41,322.88Z"/><path class="cls-15" d="M312.94,328.93c1.12-.69,5.15-3.34,6.66-4.33l-.34-.14-.13-.07c-1.61,1.06-5.4,3.54-6.47,4.21a4.06,4.06,0,0,0-1.8,2.37l.48.06A3.65,3.65,0,0,1,312.94,328.93Z"/><path class="cls-15" d="M331.34,327.92a8.2,8.2,0,0,0-4.44,1.38,5.8,5.8,0,0,0-2.26,3.23h.67a5.34,5.34,0,0,1,2-2.81,7.53,7.53,0,0,1,4.08-1.24Z"/><path class="cls-15" d="M332.1,333.94c0,.09-.15.17-.34.17l-26.4.18c-.18,0-.33-.07-.32-.17l0-1.32c0-.09.16-.17.35-.17l26.39-.19c.19,0,.33.08.33.18Z"/><path class="cls-15" d="M309.79,327.06c-.23-.07-1.39.22-2.92,1.46s-1.91,3.5-1.43,4.23l7.5-.09C312.63,328.64,310,327.14,309.79,327.06Z"/><path class="cls-10" d="M312.72,327.1a.43.43,0,0,1-.09.65h0a.63.63,0,0,1-.77-.05l-1.23-1.25a.42.42,0,0,1,.09-.65h0a.6.6,0,0,1,.77.05Z"/><path class="cls-10" d="M314.16,326.14a.42.42,0,0,1-.08.65h0a.63.63,0,0,1-.77-.05l-1.23-1.25a.42.42,0,0,1,.09-.65h0a.6.6,0,0,1,.77.05Z"/><path class="cls-10" d="M315.61,325.18a.41.41,0,0,1-.08.65h0a.63.63,0,0,1-.77-.05l-1.22-1.25a.41.41,0,0,1,.08-.65h0a.6.6,0,0,1,.77.05Z"/><path class="cls-10" d="M317.06,324.22a.41.41,0,0,1-.08.65h0a.63.63,0,0,1-.77-.05L315,323.57a.42.42,0,0,1,.09-.65h0a.62.62,0,0,1,.77.05Z"/><path class="cls-14" d="M370.85,323l-.83-3.34c-1.23-4.91-2.74-11.06-3.56-14.36-.35-1.45-.57-2.34-.57-2.34l17-1.46.13,2.38c.19,3.41.53,9.81.74,14.6.13,3,.22,5.35.18,6a.71.71,0,0,1,0,.14c.39,1.91,1.31,7.21,1.31,7.21l-20.72.13,0-3.45Z"/><path class="cls-15" d="M371,322.81c-.24-.26-.57-.47-.81-.35s-6.47,4.31-6.76,4.52a1.21,1.21,0,0,0-.46,1.14c0,.68,0,4.45,0,4.45l22.75-.14s-.92-6.56-1-6.92-.5-.84-.75-.83a20.3,20.3,0,0,1-4.82.68,15.52,15.52,0,0,1-6.31-1A7.14,7.14,0,0,1,371,322.81Z"/><path class="cls-15" d="M366.68,328.82c1.1-.69,5.05-3.3,6.53-4.28l-.35-.15-.13-.07c-1.58,1.05-5.29,3.51-6.35,4.17a3.94,3.94,0,0,0-1.73,2.35l.49.07A3.52,3.52,0,0,1,366.68,328.82Z"/><path class="cls-15" d="M385.08,327.91a8,8,0,0,0-4.4,1.35,5.54,5.54,0,0,0-2.16,3.22h.67a5.08,5.08,0,0,1,1.92-2.79,7.2,7.2,0,0,1,4.05-1.22C385.14,328.27,385.11,328.09,385.08,327.91Z"/><path class="cls-15" d="M386.08,333.92c0,.1-.15.18-.34.18l-26.44.1c-.19,0-.34-.08-.34-.18v-1.31c0-.1.15-.18.33-.18l26.44-.1c.19,0,.34.08.34.18Z"/><path class="cls-15" d="M363.46,326.94c-.23-.07-1.39.21-2.88,1.45s-1.8,3.47-1.3,4.2l7.52,0C366.36,328.53,363.7,327,363.46,326.94Z"/><path class="cls-10" d="M366.39,327a.41.41,0,0,1-.06.65h0a.65.65,0,0,1-.78-.05l-1.26-1.26a.41.41,0,0,1,.07-.65h0a.62.62,0,0,1,.77.06Z"/><path class="cls-10" d="M367.81,326a.41.41,0,0,1-.06.65h0a.63.63,0,0,1-.78-.06l-1.26-1.25a.41.41,0,0,1,.07-.65h0a.62.62,0,0,1,.77.06Z"/><path class="cls-10" d="M369.24,325.09a.42.42,0,0,1-.07.65h0a.62.62,0,0,1-.77-.06l-1.27-1.25a.42.42,0,0,1,.07-.65h0a.62.62,0,0,1,.77.06Z"/><path class="cls-10" d="M370.66,324.14a.41.41,0,0,1-.07.65h0a.62.62,0,0,1-.77-.06l-1.27-1.25a.42.42,0,0,1,.07-.65h0a.63.63,0,0,1,.78.06Z"/><path class="cls-16" d="M318.11,302.87c-.12,3.32-.35,9.66-.52,14.75l13.66,1.61c1.13-4.77,2.56-11.11,3.31-14.42Z"/><path class="cls-16" d="M366.46,305.25c.82,3.3,2.33,9.45,3.56,14.36l13.77-1.18c-.21-4.79-.55-11.19-.74-14.6Z"/><path class="cls-17" d="M315.71,243.59v-2.73A8.21,8.21,0,0,1,316,239c.53-8.25,1.74-27.29,2.52-39.81a13.58,13.58,0,0,1-.07-2.24c1-19.09,4.44-26.83,4.44-27.49l41,.83s5.43,8.39,6.58,17.11.83,23,.83,23.54c0,0,0,0-.1,0,1.55,13.29,3.09,26.89,3.36,29.23l.09.35,11.55,74.53-4.72.52-.47.05-13.69,1.51L351,245a2.61,2.61,0,0,1-.06-.27q-.09-.31-.15-.63s-3.38-18.58-6.34-34.12c-2.16,16-4.73,34.91-4.73,34.91a8.82,8.82,0,0,1-.37,1.71l-5.1,69.2-4.5-.59-.47-.06-13.58-1.79v-69C315.7,244.05,315.7,243.82,315.71,243.59Z"/><path class="cls-15" d="M340.68,194.93h0c.07-.79,1.37-15.53,1.95-22.62l-.5,0c-.45,5.6-1.36,15.93-1.76,20.4-.05-.53-.1-1.07-.13-1.6-.29-5.21-.41-13.16-.46-18.7l-.49,0c.05,5.54.17,13.5.46,18.71.49,8.71,4.55,18.14,4.59,18.23l.45-.2A67.08,67.08,0,0,1,340.68,194.93Z"/><polygon class="cls-18" points="292.63 103.85 295.27 99.34 304.74 104.84 302.87 108.7 292.63 103.85"/><path class="cls-10" d="M380.92,229.66l-24.85.16-18.9.12-30.15.2c0-.84,10.72-35.77,11.44-64.18.51-20.37-8.86-35.42-9.06-41.2-.21-6.14,9.18-11.72,20.85-15.36l.54-.16a99.94,99.94,0,0,1,19.08-3.79l.71-.07c8.3-.72,15.7,2.62,19.82,5,1.93,5.64-.52,24.28.33,55C371.51,193.5,380.92,229.66,380.92,229.66Z"/><path class="cls-18" d="M350.81,174.61l-10.51-1.14L330.25,109.4l.54-.16a99.94,99.94,0,0,1,19.08-3.79l.71-.07Z"/><path class="cls-18" d="M352.19,107.16l-.07,2.29a14.67,14.67,0,0,1-11.46,8.81c-4,.53-9.63-1.31-12.64-3.68l.81-2.78A122.77,122.77,0,0,1,352.19,107.16Z"/><path class="cls-19" d="M326.17,110.7c-.21,1.9-5.15,26.73-5.15,26.73l8.67-4.82-5.29,9,16.2,32-7.44-60.85,2.1-9.15Z"/><path class="cls-19" d="M355.42,105.2c.44,1.85,10.17,31.13,10.17,31.13l-9.21-3.7,6.37,8.29-12.09,33.74L349,109.8l-4.75-7.92Z"/><polygon class="cls-17" points="356.07 229.82 337.17 229.94 340.6 173.6 350.64 173.73 356.07 229.82"/><polygon class="cls-19" points="360.01 181.11 369.43 192.74 368.04 196.34 359.19 183.33 360.01 181.11"/><polygon class="cls-19" points="334.58 182.25 334.71 184.51 324.16 197.52 324.16 191.99 334.58 182.25"/><path class="cls-10" d="M292.37,101.63l12.26,5.64L302.12,127l14.2-10.74L317.43,146s-22.59,10.18-32.18,6.73S292.37,101.63,292.37,101.63Z"/><path class="cls-10" d="M370.4,110.36s30.24,35.05,28.34,41.11c-6.76,21.59-31.9,3.54-31.9,3.54l-7.29-7.67Z"/><ellipse class="cls-18" cx="384.3" cy="148.98" rx="4.29" ry="7.6"/><polygon class="cls-17" points="341.77 127.51 380.03 121.79 385.25 165.27 348.14 171.91 341.77 127.51"/><path class="cls-20" d="M382.61,138.61s-5.55.35-5.84,2.1,5.69,1.1,5.69,1.1-3.83.29-4.12,2,4.41,1.46,4.41,1.46-2.77,1.75-2.48,2.62,2.63,1,2.63,1-3.35,3.06-2.63,3.93,4.08-.29,4.52-1.6a2.09,2.09,0,0,0-.58-2.18,2.94,2.94,0,0,0,.58-3.65c.48-.71.58-3.2-.29-3.49S384.64,139,382.61,138.61Z"/><polygon class="cls-10" points="353.77 125.5 354.04 128.83 369.07 126.77 368.8 123.57 353.77 125.5"/><path class="cls-21" d="M302.12,127s-.33,12.6-3.31,14.59-6.79,4-6.79,4,10.1-.83,10.93-4.81S302.12,127,302.12,127Z"/><path class="cls-20" d="M334.47,107.61a11.26,11.26,0,0,0,.62,2c1.34,3.12,4,5.06,6.66,4.52l.17,0c3.14-.65,5-4.61,4.1-8.86l-2.55-12.33-11.06.39Z"/><path class="cls-11" d="M343.59,81.5a10.74,10.74,0,0,1,4.1,7.67c.5,3.27-.08,6-1.46,7.86-1.15,1.55-12.84,2.74-12.84,2.74a8.92,8.92,0,0,1-4.64-4.86c-1.45-4.33-1.11-8.78.54-10.85C329.29,84.06,340.56,79.09,343.59,81.5Z"/><path class="cls-22" d="M337.28,79a10.19,10.19,0,0,1,6.12,3.34c2.6,3,5.59,12.47-.54,17.92s-12.49-.2-13.58-6.42S328.15,79.12,337.28,79Z"/><path class="cls-23" d="M336.59,94.14h0c-.37,0-2.18,0-2.44-.93s.72-3.56.91-4.11a.27.27,0,0,1,.35-.16.28.28,0,0,1,.17.35,12.77,12.77,0,0,0-.9,3.78c.11.38,1.19.54,1.89.52a.29.29,0,0,1,.29.27A.28.28,0,0,1,336.59,94.14Z"/><path class="cls-11" d="M331.5,90.1a.78.78,0,1,0,.7-.92A.82.82,0,0,0,331.5,90.1Z"/><path class="cls-11" d="M340.71,86.36a.28.28,0,0,1-.2,0,2.57,2.57,0,0,0-2.76.17.27.27,0,0,1-.39,0,.28.28,0,0,1,.06-.39,3.09,3.09,0,0,1,3.39-.19.28.28,0,0,1,.09.38A.28.28,0,0,1,340.71,86.36Z"/><path class="cls-11" d="M333.06,86.94a.29.29,0,0,1-.18,0h0a1.64,1.64,0,0,0-1.91.23.3.3,0,0,1-.4,0,.29.29,0,0,1,0-.4,2.21,2.21,0,0,1,2.57-.32.29.29,0,0,1,.11.38A.32.32,0,0,1,333.06,86.94Z"/><path class="cls-11" d="M339.55,95.3c-3.66,1.33-5.39.86-5.39.86s.17,2.38,2.4,2.3A2.93,2.93,0,0,0,339.55,95.3Z"/><path class="cls-10" d="M334.3,96.19s.15.42.2.51.45.28,2,.18a9.35,9.35,0,0,0,3-.81,2.92,2.92,0,0,0,.06-.77l-.62.22a10.37,10.37,0,0,1-4.62.67Z"/><ellipse class="cls-11" cx="338.81" cy="89.71" rx="0.8" ry="0.88" transform="translate(-6.6 30.27) rotate(-5.07)"/><path class="cls-11" d="M347.18,87.21,346,91c-.79-.13-.67-1.39-1-1.62.24-2.45.09-5.61-1.18-7s-3.83-.47-6.21-.71c-1.95-.2-4.66-1.81-6.43-.15-1.49,1.41-1.9,4.23-1.75,6.89-1.08,0-1.17.54-1.85.56a12.17,12.17,0,0,1,1.5-7.88,9.57,9.57,0,0,1,9.25-5.34C341.47,76,348.33,79.29,347.18,87.21Z"/><path class="cls-22" d="M327.61,90.81c.81,1.42,2.13,2.21,2.92,1.73s.76-2-.06-3.42-2.14-2.19-2.94-1.73S326.77,89.39,327.61,90.81Z"/><path class="cls-22" d="M345,89.89c-.23,1.68.47,3.22,1.59,3.43s2.21-1,2.44-2.7-.47-3.22-1.58-3.41S345.24,88.2,345,89.89Z"/><g id="_Grupo_" data-name="&lt;Grupo&gt;"><circle class="cls-17" cx="356.08" cy="133.63" r="4.16" transform="translate(52.43 362.64) rotate(-57.59)"/><path class="cls-11" d="M358.72,133.69a2.65,2.65,0,1,1-2.58-2.7A2.65,2.65,0,0,1,358.72,133.69Z"/><path class="cls-17" d="M328.75,159.88c-4.09-5.58-6.46-11.28-6.85-16.47-.33-4.26.72-8.13,2.88-10.62s4.89-3.18,7.27-1.92c4.23,2.23,7.08,10.89,2.41,28.48l-.84-.22c2.1-7.94,2.82-14.52,2.13-19.56-.54-4-2-6.82-4.11-7.93s-4.38-.4-6.2,1.72c-2,2.32-3,6-2.67,10,.38,5,2.69,10.56,6.68,16Z"/><path class="cls-11" d="M321.75,142.08A14.42,14.42,0,0,1,324,133.6a7.2,7.2,0,0,1,5.36-3.41c3.11-.16,6.69,2.48,7.43,10.36l-1,.09c-.67-7.14-3.71-9.54-6.34-9.4-3.32.17-6.72,4.27-6.65,10.83Z"/><path class="cls-11" d="M334,160a.69.69,0,0,1-.2,0,.79.79,0,0,1-.56-1c.37-1.4.71-2.79,1-4.12a.8.8,0,0,1,.94-.6.79.79,0,0,1,.6.93c-.29,1.35-.63,2.76-1,4.19A.78.78,0,0,1,334,160Z"/><path class="cls-11" d="M329.1,160.41a.77.77,0,0,1-.63-.32c-.69-.94-1.33-1.88-1.91-2.81a.79.79,0,0,1,.24-1.08.8.8,0,0,1,1.09.24c.56.9,1.18,1.82,1.84,2.72a.78.78,0,0,1-.63,1.25Z"/><path class="cls-11" d="M334,105.32c0-.1,0-.2,0-.3v-1.44c-4.1,5-6.17,14.46-5.74,27l1,0c-.26-7.88.44-14.46,2.09-19.55A22,22,0,0,1,334,105.32Z"/><path class="cls-11" d="M346.59,101.78a11.11,11.11,0,0,0,0,1.29,21.66,21.66,0,0,1,6.13,9.2,48.66,48.66,0,0,1,2.65,19.23l1.05,0C357.1,115.18,351.72,105.46,346.59,101.78Z"/></g><path class="cls-8" d="M323,222.79v6.62a7,7,0,0,1-3.55,6.1,6.85,6.85,0,0,1-2.23.81,7.15,7.15,0,0,1-1.24.11H247.82a6.41,6.41,0,0,1-1-.07,7.1,7.1,0,0,1-2.23-.71,7,7,0,0,1-3.8-6.24v-6.62a7,7,0,0,1,3.8-6.24,7.1,7.1,0,0,1,2.23-.71,8,8,0,0,1,1-.07h68.12a7.15,7.15,0,0,1,1.24.11,6.85,6.85,0,0,1,2.23.81A7,7,0,0,1,323,222.79Z"/><path class="cls-11" d="M248.59,236.43h66.58a7.78,7.78,0,0,1,7.78,7.78v68.67A21.95,21.95,0,0,1,301,334.84H262.75a21.95,21.95,0,0,1-21.95-21.95V244.21A7.78,7.78,0,0,1,248.59,236.43Z"/><path class="cls-5" d="M319.16,248.08v62.19a20,20,0,0,1-20,20H264.62a20,20,0,0,1-20-20V248.08a7.1,7.1,0,0,1,7.1-7.1h60.36A7.1,7.1,0,0,1,319.16,248.08Z"/><path class="cls-24" d="M246.83,216.93v18.35a7.55,7.55,0,0,1-2.23-.64V217.56A7.85,7.85,0,0,1,246.83,216.93Z"/><rect class="cls-24" x="252.67" y="216.87" width="2.23" height="18.47"/><rect class="cls-24" x="260.73" y="216.87" width="2.23" height="18.47"/><rect class="cls-24" x="268.8" y="216.87" width="2.23" height="18.47"/><rect class="cls-24" x="276.86" y="216.87" width="2.23" height="18.47"/><rect class="cls-24" x="284.92" y="216.87" width="2.23" height="18.47"/><rect class="cls-24" x="292.99" y="216.87" width="2.23" height="18.47"/><rect class="cls-24" x="301.05" y="216.87" width="2.23" height="18.47"/><rect class="cls-24" x="309.12" y="216.87" width="2.23" height="18.47"/><path class="cls-24" d="M319.41,217.69v16.83a7.78,7.78,0,0,1-2.23.72V217A7.49,7.49,0,0,1,319.41,217.69Z"/><path class="cls-10" d="M252.92,309.3l9.49,9.49a4,4,0,0,1-5.69,5.68L247.23,315a4,4,0,0,1,0-5.68,4,4,0,0,1,5.68,0Z"/><path class="cls-8" d="M257.6,314l4.81,4.81a4,4,0,0,1-5.69,5.68l-4.8-4.81a6.24,6.24,0,0,1,1.64-2.89l1.15-1.15A6.24,6.24,0,0,1,257.6,314Z"/><path class="cls-10" d="M268.25,319.85l13.42-.08a4,4,0,0,1,.05,8l-13.43.08a4,4,0,0,1,0-8Z"/><path class="cls-8" d="M274.88,319.81l6.79,0a4,4,0,0,1,.05,8l-6.8,0a6.15,6.15,0,0,1-.9-3.21V323A6.15,6.15,0,0,1,274.88,319.81Z"/><path class="cls-10" d="M290.82,320.08l13.42-.08a4,4,0,0,1,.05,8l-13.42.08a4,4,0,0,1-2.88-6.84A4,4,0,0,1,290.82,320.08Z"/><path class="cls-8" d="M297.45,320l6.79,0a4,4,0,0,1,.05,8l-6.79,0a6.25,6.25,0,0,1-.91-3.21v-1.62A6.25,6.25,0,0,1,297.45,320Z"/><path class="cls-10" d="M287.18,309.19l13.32,1.61a4,4,0,0,1-1,8l-13.32-1.61a4,4,0,0,1-3.5-4.47,4,4,0,0,1,4.47-3.51Z"/><path class="cls-8" d="M293.76,310l6.74.81a4,4,0,0,1-1,8l-6.74-.82a6.18,6.18,0,0,1-.5-3.29l.2-1.61A6.11,6.11,0,0,1,293.76,310Z"/><path class="cls-10" d="M257.7,291.94,260.79,305a4,4,0,1,1-7.82,1.85l-3.08-13.06a4,4,0,1,1,7.81-1.85Z"/><path class="cls-8" d="M259.23,298.39l1.56,6.61a4,4,0,1,1-7.82,1.85l-1.56-6.61a6.24,6.24,0,0,1,2.92-1.6l1.57-.37A6.24,6.24,0,0,1,259.23,298.39Z"/><path class="cls-10" d="M316.29,303.35l-2.6,13.16a4,4,0,1,1-7.88-1.55l2.6-13.17a4,4,0,1,1,7.88,1.56Z"/><path class="cls-8" d="M315,309.85l-1.32,6.66a4,4,0,1,1-7.88-1.55l1.32-6.67a6.25,6.25,0,0,1,3.31-.25l1.59.32A6.28,6.28,0,0,1,315,309.85Z"/><path class="cls-10" d="M275.35,285.17l-9.08,9.88a4,4,0,1,1-5.92-5.44l9.08-9.88a4,4,0,0,1,7,2.55A4,4,0,0,1,275.35,285.17Z"/><path class="cls-8" d="M270.86,290.05l-4.59,5a4,4,0,1,1-5.92-5.44l4.6-5a6.19,6.19,0,0,1,3,1.52l1.19,1.09A6.21,6.21,0,0,1,270.86,290.05Z"/><path class="cls-10" d="M303.33,297.74l-9.88-9.07a4,4,0,0,1,5.43-5.92l9.89,9.08a4,4,0,1,1-5.44,5.91Z"/><path class="cls-8" d="M298.45,293.26l-5-4.59a4,4,0,0,1,5.43-5.92l5,4.59a6.26,6.26,0,0,1-1.52,3l-1.1,1.19A6.21,6.21,0,0,1,298.45,293.26Z"/><path class="cls-10" d="M289.46,298.81l-13-3.32a4,4,0,1,1,2-7.79l13,3.33a4,4,0,1,1-2,7.78Z"/><path class="cls-8" d="M283,297.17l-6.58-1.68a4,4,0,1,1,2-7.79l6.58,1.69a6.22,6.22,0,0,1,.06,3.32l-.4,1.57A6.17,6.17,0,0,1,283,297.17Z"/><path class="cls-10" d="M270.61,300.87l-1.68,13.31a4,4,0,1,1-8-1l1.68-13.32a4,4,0,1,1,8,1Z"/><path class="cls-8" d="M269.78,307.44l-.85,6.74a4,4,0,1,1-8-1l.85-6.74a6.21,6.21,0,0,1,3.3-.48l1.6.2A6.23,6.23,0,0,1,269.78,307.44Z"/><path class="cls-10" d="M272.82,315.07,272,301.68a4,4,0,1,1,8-.51l.85,13.39a4,4,0,0,1-8,.51Z"/><path class="cls-8" d="M272.4,308.46l-.43-6.78a4,4,0,1,1,8-.51l.43,6.78a6.26,6.26,0,0,1-3.14,1.09l-1.62.1A6.28,6.28,0,0,1,272.4,308.46Z"/><path class="cls-10" d="M287.58,300l13.36-1.29a4,4,0,1,1,.77,8L288.36,308a4,4,0,1,1-.78-8Z"/><path class="cls-8" d="M294.18,299.31l6.76-.65a4,4,0,1,1,.77,8l-6.76.65a6.19,6.19,0,0,1-1.19-3.11l-.15-1.61A6.15,6.15,0,0,1,294.18,299.31Z"/><rect class="cls-5" x="410.22" y="87.88" width="6" height="18" transform="translate(510.11 -316.34) rotate(90)"/><rect class="cls-5" x="410.22" y="87.88" width="6" height="18"/><rect class="cls-5" x="413.64" y="119.85" width="6" height="18" transform="translate(545.48 -287.79) rotate(90)"/><rect class="cls-5" x="413.64" y="119.85" width="6" height="18"/><rect class="cls-5" x="174.09" y="1.17" width="6" height="18" transform="translate(187.26 -166.92) rotate(90)"/><rect class="cls-5" x="174.09" y="1.17" width="6" height="18"/><rect class="cls-5" x="13.8" y="142.69" width="6" height="18" transform="translate(168.49 134.9) rotate(90)"/><rect class="cls-5" x="13.8" y="142.69" width="6" height="18"/><rect class="cls-5" x="134.1" width="6" height="18" transform="translate(146.1 -128.09) rotate(90)"/><rect class="cls-5" x="134.1" width="6" height="18"/></g></g></svg>